<svg width="150" height="150" viewBox="0 0 150 150" fill="none" xmlns="http://www.w3.org/2000/svg">
<path d="M67.7624 80.6473H85.9505V74.5816H83.9525C83.9631 75.1367 83.8574 75.6876 83.6418 76.1991C83.4269 76.7113 83.1064 77.172 82.7027 77.5524C82.2983 77.9329 81.8193 78.2252 81.2958 78.4091C80.7717 78.5937 80.2151 78.6663 79.6621 78.6226H76.861V69.5416H79.9115V67.5352H67.7624V69.5416H70.8136V78.605H67.7539L67.7624 80.6473Z" fill="white"/>
<path d="M94.6905 80.6565H101.773L107.776 69.5507H110.782V67.5352H101.728V69.5507H104.341L99.9707 77.6412L95.538 69.5507H98.7131V67.5352H85.5742V69.5507H88.5803L94.6905 80.6565Z" fill="white"/>
<path d="M31.5381 67.5352H18.3984V69.5507H21.4045L27.5147 80.6565H34.597L40.6008 69.5507H43.6153V67.5352H34.5526V69.5507H37.1755L32.7956 77.6412L28.3622 69.5507H31.5465L31.5381 67.5352Z" fill="white"/>
<path d="M45.3711 74.144C45.3711 78.0068 48.4843 81.0749 54.7283 81.0749C60.9723 81.0749 64.0411 78.0068 64.0411 74.144C64.0411 70.2819 60.7764 67.2935 54.6931 67.2935C48.609 67.2935 45.3711 70.2996 45.3711 74.144ZM57.9394 74.144C57.895 76.5259 56.9136 79.0149 54.6212 78.9698C52.3287 78.9255 51.4277 76.4724 51.4636 74.0285C51.4995 71.5839 52.7211 69.3006 54.7994 69.3365C56.8784 69.3717 57.9845 71.6106 57.9394 74.144Z" fill="white"/>
<path d="M112.527 74.144C112.527 78.0068 115.632 81.0749 121.876 81.0749C128.12 81.0749 131.197 78.0068 131.197 74.144C131.197 70.2819 127.923 67.2935 121.84 67.2935C115.757 67.2935 112.527 70.2996 112.527 74.144ZM121.956 69.3633C124.035 69.3633 125.132 71.6466 125.087 74.1708C125.087 76.5527 124.061 79.0417 121.777 78.9966C119.494 78.9522 118.575 76.4992 118.62 74.0552C118.664 71.6106 119.869 69.2914 121.956 69.3273V69.3633Z" fill="white"/>
<path d="M136.726 32.3986L129.117 40.0072C137.741 53.3518 141.12 69.4151 138.605 85.1029C136.09 100.791 127.858 114.993 115.495 124.972C103.132 134.951 87.5122 140.002 71.6469 139.151C55.7815 138.299 40.7926 131.606 29.5685 120.36C18.3444 109.115 11.6791 94.1142 10.8576 78.2467C10.0355 62.38 15.1156 46.7704 25.1181 34.4261C35.1206 22.0814 49.3382 13.8757 65.0302 11.3899C80.7229 8.9041 96.7806 12.3142 110.108 20.963L117.717 13.3542C102.329 2.69083 83.5085 -1.8315 64.9555 0.675887C46.4018 3.18327 29.4572 12.5391 17.4518 26.9047C5.44567 41.2703 -0.753224 59.6071 0.0731545 78.3101C0.899533 97.0139 8.69129 114.733 21.9169 127.983C35.1432 141.234 52.8466 149.059 71.5489 149.92C90.2513 150.782 108.599 144.618 122.987 132.638C137.375 120.66 146.763 103.733 149.305 85.184C151.847 66.6359 147.36 47.8067 136.726 32.3986Z" fill="white"/>
<path d="M112.754 2.98975V5.08592C117.283 7.54519 121.564 10.4369 125.536 13.7206L114.832 24.4247C118.863 27.5832 122.499 31.216 125.661 35.2444L136.365 24.5406C139.64 28.5098 142.539 32.7738 145.026 37.2783H147.078V2.98975H112.754Z" fill="white"/>
</svg>
