<svg width="180" height="15" viewBox="0 0 180 15" fill="none" xmlns="http://www.w3.org/2000/svg">
<path fill-rule="evenodd" clip-rule="evenodd" d="M42.7489 7.07857C42.7489 3.1399 46.025 0 52.1923 0C58.3618 0 61.6719 3.1399 61.6719 7.07857C61.6719 11.0732 58.5514 14.2575 52.2285 14.2575C45.9035 14.2575 42.7489 11.0732 42.7489 7.07857ZM48.9236 6.99542C48.8822 9.5201 49.8718 12.0599 52.1242 12.1008C54.4447 12.1452 55.4421 9.57783 55.4834 7.11347C55.5291 4.50004 54.4145 2.17829 52.3043 2.13951C50.1941 2.10289 48.9693 4.38199 48.9236 6.99542ZM3.04857 2.36872L9.2448 13.8543L16.4169 13.8599L22.5067 2.36872H25.5591V0.287368H16.3772V2.36872H19.0294L14.5949 10.7338L10.1017 2.36872H13.3248L13.3226 0.287368H0.00215626L0 2.36872H3.04857ZM81.9809 2.36312V0.287368L94.2648 0.289091V2.36484H91.2046V11.7397H94.0412C96.6688 11.7397 98.3922 9.96774 98.3922 7.56499H100.419V13.8426L81.9809 13.8444V11.7415H85.0773L85.0734 2.36312H81.9809ZM121.37 2.36872L127.564 13.8543L134.738 13.8599L140.828 2.36872H143.88V0.287368H134.698V2.36872H137.351L132.916 10.7338L128.423 2.36872H131.644V0.287368H118.323L118.322 2.36872H121.37ZM161.077 7.07857C161.077 3.1399 164.353 0 170.52 0C176.689 0 180 3.1399 180 7.07857C180 11.0732 176.879 14.2575 170.556 14.2575C164.232 14.2575 161.077 11.0732 161.077 7.07857ZM167.252 6.99542C167.21 9.5201 168.199 12.0599 170.452 12.1008C172.771 12.1452 173.768 9.57783 173.81 7.11347C173.855 4.50004 172.742 2.17829 170.632 2.13951C168.522 2.10289 167.297 4.38199 167.252 6.99542Z" fill="#141414"/>
</svg>
