<svg width="30" height="30" viewBox="0 0 30 30" fill="none" xmlns="http://www.w3.org/2000/svg">
<path d="M28.6544 7.66472C28.4919 7.05122 28.1737 6.49184 27.7315 6.04262C27.2893 5.5934 26.7387 5.2701 26.1348 5.10511C23.9122 4.5 14.9999 4.5 14.9999 4.5C14.9999 4.5 6.08778 4.5 3.86521 5.10511C3.26131 5.2701 2.71069 5.5934 2.26849 6.04262C1.8263 6.49184 1.50805 7.05122 1.34564 7.66472C0.75 9.9226 0.75 14.6336 0.75 14.6336C0.75 14.6336 0.75 19.3443 1.34564 21.6022C1.50808 22.2157 1.82633 22.775 2.26852 23.2243C2.71071 23.6735 3.26132 23.9968 3.86521 24.1618C6.08778 24.7667 14.9999 24.7667 14.9999 24.7667C14.9999 24.7667 23.9122 24.7667 26.1348 24.1618C26.7387 23.9968 27.2893 23.6734 27.7315 23.2242C28.1737 22.7749 28.492 22.2155 28.6544 21.602C29.25 19.3441 29.25 14.6333 29.25 14.6333C29.25 14.6333 29.25 9.9226 28.6544 7.66472Z" fill="white"/>
<path d="M12.1523 19.0664L19.119 14.6332L12.1523 10.1997V19.0664Z" fill="#202A44"/>
</svg>
