<svg width="23" height="30" viewBox="0 0 23 30" fill="none" xmlns="http://www.w3.org/2000/svg">
<path d="M21.7407 11.5611L21.7406 11.5611L21.7403 11.5706C21.6878 12.9909 21.3508 14.3373 20.7849 15.5573L20.7765 15.5757L20.769 15.5944C19.4211 18.9651 16.927 22.425 14.7364 25.0682C13.6463 26.3835 12.6419 27.4842 11.9105 28.2555C11.6538 28.5262 11.4309 28.7561 11.25 28.9403C11.0691 28.7561 10.8462 28.5262 10.5895 28.2555C9.85812 27.4842 8.8537 26.3835 7.76361 25.0682C5.57298 22.425 3.07891 18.9651 1.73105 15.5944L1.7234 15.5753L1.71471 15.5566C1.14775 14.3375 0.812225 12.9914 0.759716 11.5706L0.759776 11.5706L0.759304 11.5611C0.753104 11.4363 0.75 11.3097 0.75 11.1864C0.75 5.42669 5.44713 0.75 11.25 0.75C17.0529 0.75 21.75 5.42669 21.75 11.1864C21.75 11.3097 21.7469 11.4363 21.7407 11.5611Z" stroke="white" stroke-width="1.5"/>
<path d="M15.6563 10.7812C15.6563 13.2148 13.6835 15.1875 11.25 15.1875C8.8165 15.1875 6.84375 13.2148 6.84375 10.7812C6.84375 8.34774 8.8165 6.375 11.25 6.375C13.6835 6.375 15.6563 8.34774 15.6563 10.7812Z" stroke="white" stroke-width="1.5"/>
</svg>
