<svg width="31" height="30" viewBox="0 0 31 30" fill="none" xmlns="http://www.w3.org/2000/svg">
<path d="M15.5012 2.00803C18.2132 2.00803 20.4213 4.47122 20.4213 7.49665C20.4213 10.5221 18.2132 12.9853 15.5012 12.9853C12.7892 12.9853 10.5812 10.5221 10.5812 7.49665C10.5812 4.47122 12.7892 2.00803 15.5012 2.00803ZM15.5012 0C11.7872 0 8.78125 3.35341 8.78125 7.49665C8.78125 11.6399 11.7872 14.9933 15.5012 14.9933C19.2152 14.9933 22.2213 11.6399 22.2213 7.49665C22.2213 3.35341 19.2152 0 15.5012 0Z" fill="white"/>
<path d="M15.5 15.2141C22.172 15.2141 27.704 20.7831 28.58 27.9919H2.42C3.296 20.7831 8.828 15.2141 15.5 15.2141ZM15.5 13.2061C7.214 13.2061 0.5 20.7228 0.5 30H30.5C30.5 20.7228 23.786 13.2061 15.5 13.2061Z" fill="white"/>
</svg>
